<svg version="1.2" xmlns="http://www.w3.org/2000/svg" viewBox="0 0 6250 2000" width="6250" height="2000">
	<title>Viands_logo_dark_on_xpar</title>
	<style>
		tspan { white-space:pre } 
		.s0 { fill: none;stroke: #545454;stroke-miterlimit:100;stroke-width: 80 } 
		.s1 { fill: #000000 } 
	</style>
	<g id="Folder 1 copy">
		<path id="Layer 1 copy 7" class="s0" d="m1759.3 1792.5c-294.8 0-533.1-238.3-533.1-533.1 0-294.8 238.3-533.1 533.1-533.1 294.8 0 533.1 238.3 533.1 533.1 0 294.8-238.3 533.1-533.1 533.1z"/>
		<path id="v  copy 5" class="s1" d="m1531.6 841.4c-8.7-45.9-28.1-80-57.8-102.8-27.2-25.3-65.2-31.5-114.2-18.6q-12.9 3.3-24.9 9.9-12.9 3.4-29.2 11.1-4.3 1.1-7.6 5.4 0 0-4.3 1.1-12.9 3.4-15.7-6.1c-1.8-6.4 3.4-20.2 15.5-41.5q14.3-13.9 60.3-29.4 45.1-18.6 87-33.1 41.9-14.4 50.6-16.7 60.3-15.9 114.5-23.5c36.3-5 70-0.2 101.3 14.4q28 9.9 51.2 31.9c15.5 14.7 23.7 31.4 24.4 50.3 5.1 13 4.9 38.3-0.5 76.1-3.3 35.2-8.4 75-15.4 119.5-3.9 44.3-9.2 85.6-15.8 123.8-4.5 35.4-6.1 59.8-4.9 72.9-7.4 77.8-12.2 165.1-14.4 262.8-2.3 100.4 8.2 176.4 31.9 226.3 99.4-210.7 197.5-412.6 294.5-606.4 92.9-185.5 199-356.6 318.4-515.2 45.2-65.9 93.6-127.2 145.2-184.2 49.9-58.4 112.9-110.9 189.2-158 33.2-20 66.4-34.5 99.6-43.5 48.5-13.1 94.9-19 139.3-17.7 44.7 1.3 78.7 7.8 101.9 19.6 16.5 2.4 30.3 11.2 41.3 26.5 16.7 23.2 12.4 38.2-12.8 44.9-6.3 1.7-21.7 1.2-46-1.6q-33.6-8.3-80.3 4.2-46.7 12.4-88.5 23.6c-64.8 17.3-133.4 59.6-206.6 127.5-70.9 67.8-144.5 152.4-221.2 254.8-75.2 103.8-148.8 216.7-220.9 339.6-74.1 126.4-142 254.2-203.6 383.8-60 132.8-108.7 254.1-145.4 363.1-34.1 111.1-46.5 195-36.3 250.1q7.8 23.9-16.2 39.4-23.9 15.6-34.7 17.9c-68.3 14.9-122.4-0.6-162-45.9-38.9-44.4-63.4-91.3-73.7-140.4-7.6-89.8-8.7-180.2-3.6-271.2 7.4-92.2 13.4-180.4 18.1-264.8 0.7-19.3 2-43.9 2.2-73.7 1.4-190.7-18.3-274.3-29.7-303.8"/>
		<path id="iands copy" fill-rule="evenodd" class="s1" d="m2626.2 803.7q0 29.4-20.3 50.8-20.3 20.9-49.6 20.9-29.3 0-50.8-20.9-20.8-21.4-20.8-50.8 0-29.8 20.8-50.1 21.5-20.3 50.8-20.3 29.3 0 49.6 20.3 20.3 20.3 20.3 50.1zm59.2 702.2v45.1h-271.2v-45.1l56.4-3.4q24.2-1.7 24.2-25.4v-412.2h-79.5v-40.6l141-44h45.7v496.8q0 10.7 6.7 17.5 7.4 6.8 17.5 7.9zm608 0v45.1h-170.9l-15.2-68.2q0 0-17.5 12.4-16.9 12.4-45.1 28.7-28.2 16.4-62.6 28.8-33.9 12.4-67.7 12.4-62.6 0-106.6-41.7-43.4-41.8-43.4-114.5 0-32.1 11.3-59.8 11.8-27.6 46.2-52.4 35-25.4 103.2-49.1 68.8-24.2 182.2-49.1v-49.6q0-113.9-107.7-113.9-29.9 0-51.9 5.6-21.5 5.7-29.9 9.1v100.3h-84q-15.8 0-29.4-5.6-13.5-6.2-13.5-27.6 0-47.4 36.1-77.3 36.1-30.5 91.3-44.6 55.9-14.6 112.8-14.6 71.7 0 111.1 22.5 39.5 22 55.3 61.5 15.8 38.9 15.8 89.1v323.7q0 10.8 6.8 17.5 7.3 6.8 17.4 7.9zm-186.1-63.7v-199.7q-77.8 19.2-124 39-45.7 19.1-68.3 38.9-22.5 19.1-29.9 39.4-6.7 19.8-6.7 41.2 0 35.5 22.5 66 23.2 29.9 64.3 29.9 23.1 0 48-7.9 24.8-8.5 46.2-19.2 21.4-11.3 34.4-19.2 13.5-8.4 13.5-8.4zm837 63.7v45.1h-254.9v-45.1l48.5-3.4q10.1-1.1 16.9-7.9 7.3-6.7 7.3-17.4v-300.6q0-54.7-25.4-82.9-25.4-28.8-85.7-28.8-32.7 0-65.4 9.6-32.2 9-61.5 23.7v379q0 23.6 24.3 25.3l48.5 3.4v45.1h-261.2v-45.1l56.4-3.4q24.3-1.7 24.3-25.3v-401h-80.7v-37.8l141-44h47.4v57.5q48.5-27.6 99.3-49.6 51.3-22 91.3-22 75.6 0 115.1 47.4 39.5 46.8 39.5 130.8v318.7q0 10.7 6.7 17.4 7.4 6.8 17.5 7.9zm644.6 0v45.1h-181.6v-61.4q-39.5 30.4-84 53-44.6 22.5-94.8 22.5-58 0-100.3-24.2-41.8-24.8-68.8-65.4-26.5-40.6-39.5-89.7-13-49.1-13-98.1 0-78.4 32.2-148.3 32.1-70.5 97.5-114.5 65.4-44.6 164.7-44.6 27.6 0 59.8 5.7 32.7 5 46.2 8.4v-211.5h-87.4v-38.3l148.9-44.6h46.2v777.2q0 23.7 24.3 25.3zm-181.6-59.7v-393.1q-14.7-5.1-44-10.7-28.8-6.2-54.1-6.2-85.8 0-137.1 63.7-51.3 63.2-51.3 168.1 0 94.1 44 156.2 44 62 123.5 62 35 0 65.4-13 31-13.5 53.6-27zm631.6-62.6q0 85.1-58.6 133.6-58.7 48-161.9 48-53 0-98.1-10.8-44.6-11.2-62-18.6v-153.4h58.6l14.1 98.2q17.5 11.2 42.9 22 25.9 10.1 59.8 10.1 49.6 0 76.7-27.6 27-27.7 27-62.1 0-45.6-32.7-68.8-32.7-23.6-93-52.4l-15.3-7.3q-63.1-29.9-97-62.1-33.2-32.7-33.2-84.6 0-77.2 54.1-122.4 54.1-45.1 154-45.1 50.7 0 90.2 9.6 40 9 57.5 16.9v136.5h-60.3l-9.1-80.6q-12.4-9.6-36.6-18.1-24.3-8.4-51.3-8.4-47.4 0-70.5 22-23.1 21.4-23.1 55.2 0 38.9 27.6 62.1 28.2 22.5 101.5 55.8 60.3 27.6 99.3 62 39.4 33.9 39.4 90.3z"/>
	</g>
</svg>