<?xml version="1.0" encoding="UTF-8" standalone="no"?>
<svg
   version="1.2"
   viewBox="0 0 2300 2300"
   width="2300"
   height="2300"
   id="svg223"
   sodipodi:docname="appiconfg.svg"
   inkscape:version="1.2.2 (732a01da63, 2022-12-09)"
   xmlns:inkscape="http://www.inkscape.org/namespaces/inkscape"
   xmlns:sodipodi="http://sodipodi.sourceforge.net/DTD/sodipodi-0.dtd"
   xmlns="http://www.w3.org/2000/svg"
   xmlns:svg="http://www.w3.org/2000/svg"
   xmlns:rdf="http://www.w3.org/1999/02/22-rdf-syntax-ns#"
   xmlns:cc="http://creativecommons.org/ns#"
   xmlns:dc="http://purl.org/dc/elements/1.1/">
  <defs
     id="defs227" />
  <sodipodi:namedview
     id="namedview225"
     pagecolor="#000000"
     bordercolor="#000000"
     borderopacity="0.25"
     inkscape:showpageshadow="2"
     inkscape:pageopacity="0"
     inkscape:pagecheckerboard="0"
     inkscape:deskcolor="#d1d1d1"
     showgrid="false"
     inkscape:zoom="0.20725"
     inkscape:cx="-552.47286"
     inkscape:cy="796.13993"
     inkscape:window-width="1920"
     inkscape:window-height="1009"
     inkscape:window-x="-8"
     inkscape:window-y="1042"
     inkscape:window-maximized="1"
     inkscape:current-layer="svg223" />
  <title
     id="title216">Viands_icon_light_on_xpar</title>
  <style
     id="style218">
		.s0 { fill: none;stroke: #545454;stroke-miterlimit:100;stroke-width: 80 } 
		.s1 { fill: #ffffff } 
	</style>
  <g
     id="Folder 1 copy"
     transform="translate(289.50543,-28.950534)">
    <path
       id="Layer 1 copy 7"
       class="s0"
       d="m 651.3,1792.5 c -294.8,0 -533.1,-238.3 -533.1,-533.1 0,-294.8 238.3,-533.1 533.1,-533.1 294.8,0 533.1,238.3 533.1,533.1 0,294.8 -238.3,533.1 -533.1,533.1 z" />
    <path
       id="v  copy 5"
       class="s1"
       d="M 423.6,841.4 C 414.9,795.5 395.5,761.4 365.8,738.6 338.6,713.3 300.6,707.1 251.6,720 q -12.9,3.3 -24.9,9.9 -12.9,3.4 -29.2,11.1 -4.3,1.1 -7.6,5.4 0,0 -4.3,1.1 -12.9,3.4 -15.7,-6.1 c -1.8,-6.4 3.4,-20.2 15.5,-41.5 q 14.3,-13.9 60.3,-29.4 45.1,-18.6 87,-33.1 41.9,-14.4 50.6,-16.7 60.3,-15.9 114.5,-23.5 c 36.3,-5 70,-0.2 101.3,14.4 q 28,9.9 51.2,31.9 c 15.5,14.7 23.7,31.4 24.4,50.3 5.1,13 4.9,38.3 -0.5,76.1 -3.3,35.2 -8.4,75 -15.4,119.5 -3.9,44.3 -9.2,85.6 -15.8,123.8 -4.5,35.4 -6.1,59.8 -4.9,72.9 -7.4,77.8 -12.2,165.1 -14.4,262.8 -2.3,100.4 8.2,176.4 31.9,226.3 99.4,-210.7 197.5,-412.6 294.5,-606.4 92.9,-185.5 199,-356.6 318.4,-515.2 45.3,-65.9 93.6,-127.2 145.2,-184.2 49.9,-58.4 112.9,-110.9 189.2,-158 33.2,-20 66.4,-34.5 99.6,-43.5 48.5,-13.1 94.9,-19 139.3,-17.7 44.7,1.3 78.7,7.8 101.9,19.6 16.5,2.4 30.3,11.2 41.3,26.5 16.7,23.2 12.4,38.2 -12.8,44.9 -6.3,1.7 -21.7,1.2 -46,-1.6 q -33.6,-8.3 -80.3,4.2 -46.7,12.4 -88.5,23.6 c -64.8,17.3 -133.4,59.6 -206.6,127.5 -70.9,67.8 -144.5,152.4 -221.2,254.8 -75.2,103.8 -148.8,216.7 -220.9,339.6 -74.1,126.4 -142,254.2 -203.6,383.8 -60,132.8 -108.7,254.1 -145.4,363.1 -34.1,111.1 -46.5,195 -36.3,250.1 q 7.8,23.9 -16.2,39.4 -23.9,15.6 -34.7,17.9 c -68.3,14.9 -122.4,-0.6 -162,-45.9 -38.9,-44.4 -63.4,-91.2 -73.7,-140.4 -7.6,-89.8 -8.7,-180.2 -3.6,-271.2 7.4,-92.2 13.4,-180.4 18.1,-264.8 0.7,-19.3 2,-43.9 2.2,-73.7 1.4,-190.7 -18.3,-274.3 -29.7,-303.8" />
  </g>
  <metadata
     id="metadata229">
    <rdf:RDF>
      <cc:Work
         rdf:about="">
        <dc:title>Viands_icon_light_on_xpar</dc:title>
      </cc:Work>
    </rdf:RDF>
  </metadata>
</svg>
